<svg xmlns="http://www.w3.org/2000/svg" width="163.34" height="199.7" viewBox="0 0 163.34 199.7"><title>n</title><path d="M137.19,71.59c-3.56-1.62-5.32-2.69-6.68-6.73a65.72,65.72,0,0,1-1.75-7.7,79.11,79.11,0,0,0-6.26-19.24c-5.48-11.07-15-19.57-26.82-20.8a23.81,23.81,0,0,0-14.74,3.15C76.46,22.94,71.48,30.91,65.77,29,59,26.76,52.22,21.18,46.08,17.52c-5.22-3.11-11-7.86-17.24-7.61-5.81.23-9.61,5.41-12.95,9.92A82.37,82.37,0,0,0,5.3,38.54c-5.2,13.14-6,27.64-.54,40.82a46.35,46.35,0,0,0,18.52,21.72c-3,4.75-4.8,11.05-6.08,15.55-2.35,8.27-2.58,17.74,1.34,25.52,3.17,6.3,8.82,10.06,14.5,13.31,5.09,2.91,11.73,5.57,12.27,12.65.65,8.55-.3,16.61,7.82,21.42,6.06,3.59,13.45,2.93,19.71.35,7.43-3.06,13.61-8.64,20.87-12,9.87-4.63,18,.48,26.25,6.41,2.43,1.74,5.77.45,7.21-2,3.31-5.72,6.67-11.68,8.31-18.26,1.95-7.83.21-15-.17-22.84-.74-15.32,11.67-26.46,14.48-40.91C152.11,88.23,147.85,76.44,137.19,71.59Z" fill="#231f20"/><path d="M155.15,35.42a10,10,0,0,0-.22-6.53,8.62,8.62,0,0,0-4.5-4.57,4.26,4.26,0,0,0-3-1.85c-3.86-.71-8.08-1-11.09,2.07a7.88,7.88,0,0,0-.54.61c-4.71,2.87-7.21,8.39-7.28,13.89-.06,4.28,1.36,13.56,5.1,17.22.29,3.16,1.21,5.89,4.34,7.88,2.46,1.56,5.28.31,6.84-1.79,4.31-5.82,10.38-14,11.1-21.51A10.85,10.85,0,0,0,155.15,35.42Z" fill="#231f20"/><path d="M32,166.12c-2.7-2.67-5.45-6.34-9.32-7.21s-7.8,1.87-8.86,5.7a8.3,8.3,0,0,0,3.9,9.51,10.07,10.07,0,0,0,8.92.21C31,176.08,36.06,170.12,32,166.12Z" fill="#231f20"/></svg>