<svg xmlns="http://www.w3.org/2000/svg" width="154.07" height="189.8" viewBox="0 0 154.07 189.8"><title>n-01</title><path d="M155.38,131.24q-15.44-35.82-33.56-70.36-9-17.1-18.58-33.81C97.68,17.4,92.81,6,80.27,5a4,4,0,0,0-4.38,3A4.72,4.72,0,0,0,74.66,9.2q-38,54.44-72.17,111.4c-3,5,4.15,9.71,7.55,5,2.86-4,5.73-8,8.75-11.88a121.56,121.56,0,0,0,5.64,22.53c1.19,3.37,6.09,3.06,7.82.48L36,131a196.26,196.26,0,0,0,4.17,31.15A88.48,88.48,0,0,0,46.7,181.8c2.23,4.44,7.26,14.13,13.58,12.83,2.91-.59,4.43-3.15,4.93-5.84.82-4.37.28-9.36.38-13.82L66,149.85,66.63,117c7.59,17.32,16,34.23,27,49.72,2.81,4,8.42.13,7.82-3.9q-.93-6.49-1.41-13,4.13,5.45,8.44,10.74c3.4,4.19,9.26-.45,7.45-5a281.38,281.38,0,0,1-15.29-53c5.07,2.92,10.23,5.66,15.47,8.27a5,5,0,0,0,3.76.18q4.77,4.75,9.47,9.58a4.93,4.93,0,0,0,4.23,1.48,6.1,6.1,0,0,0,.59.44l1.25,1.24,4.38,4.34,8.14,8.06a4.52,4.52,0,0,0,7.43-5Z" transform="translate(-1.77 -4.95)" fill="#231f20"/></svg>