<svg xmlns="http://www.w3.org/2000/svg" width="157.6" height="199.7" viewBox="0 0 157.6 199.7"><title>n</title><path d="M149.67,73.61Q113.61,49.9,75.84,29,57.16,18.65,38.1,9.05C27.08,3.5,15.65-4.06,3.43,2.62A4.43,4.43,0,0,0,1.2,8.05,5.22,5.22,0,0,0,.81,9.93q-2,73.43,1.07,146.87c.27,6.43,9.74,6.45,10,0,.22-5.43.44-10.87.86-16.3a134.51,134.51,0,0,0,18.92,17.39c3.15,2.39,7.49-.88,7.52-4.32,0-2.5,0-5,0-7.49a217.16,217.16,0,0,0,22.8,26.25,97.9,97.9,0,0,0,18,14.13c4.76,2.75,15.31,8.64,20.36,3.6,2.33-2.32,2.18-5.61,1-8.4-1.9-4.54-5.43-8.82-8.06-13L78.42,145.16,59,114.47c17.55,11.39,35.6,21.91,55.22,29.52,5,1.95,7.86-5,4.86-8.36q-4.81-5.43-9.21-11.15Q117,127,124.2,129.27c5.69,1.8,8.28-6.05,3.85-9.14A311.35,311.35,0,0,1,81.69,80.48c6.46-.38,12.9-1,19.33-1.77a5.5,5.5,0,0,0,3.59-2.12q7.3,1.49,14.58,3.09A5.46,5.46,0,0,0,124,78.47a6.75,6.75,0,0,0,.81.05l1.91.38,6.69,1.34,12.43,2.5A5,5,0,0,0,149.67,73.61Z" fill="#231f20"/></svg>