<svg xmlns="http://www.w3.org/2000/svg" width="143.47" height="199.7" viewBox="0 0 143.47 199.7"><title>n</title><path d="M124.27,117.91c3.35-4.84,5.21-10.46,3-16.18-2-5.2-6.64-8.26-10.47-12-5-4.88-4.3-10.31-3-16.68,1.38-6.71,3.11-13.86.87-20.59-1.91-5.76-7.43-13.83-13.38-15.9-7.67-2.67-11.29,4.21-17,7.53-7,4.1-18.31,1.88-26,1.65a5.38,5.38,0,0,0-1.27.11q-.68-.65-1.37-1.28c-5.33-4.88-18.06-12.76-25-6.05-3.12,3-3.27,9.65-3.73,13.68A68,68,0,0,0,27,67.7a73.32,73.32,0,0,0,8.1,26.06c-10.68,7.37-21.05,15.65-26.17,28-2.68,6.45-3.76,13.73-2.1,20.59,1.58,6.52,6.06,10.11,12.37,11.7,7.25,1.82,15.06,1,22.12,3.63,8.45,3.1,8.13,9.43,9.36,17.09,1,6.07,4.29,11.44,11.19,10.62,7.12-.85,13.12-7.48,19.19-10.84,5.76-3.19,13.62-5.41,19.3-.84,4.52,3.64,9.6,8.91,15.52,4.18,4.88-3.9,5.17-13.12,5.37-18.8.27-7.56-1.57-14.63-2.91-22-.68-3.74-1.08-7.75.57-11.31C120.25,122.89,122.49,120.48,124.27,117.91Z" fill="#231f20"/><path d="M95.88,25.09a6.55,6.55,0,0,0-3.58-5.41c-1.94-1-6.3,0-7.73-1.29-.77-.68-.71-4.25-1.34-5.45A13,13,0,0,0,78.13,8C74,5.62,69.41,4.7,65.61,8.18A21.37,21.37,0,0,0,61,14.56C56.47,10,51.82,5.88,44.79,9.18c-5.28,2.47-6.42,8.62-3,13.17,1.66,2.24,4,3.34,6.25,4.88,1.38,1,6.13,4.88,5.82,6.5-.5,2.54.7,5.53,3.49,6.15,5.91,1.3,11.33.2,17.1-1.22a34.17,34.17,0,0,1,8.45-1.39c2.73,0,5.13.46,7.54-1.16C93.52,34,96.22,28.87,95.88,25.09Z" fill="#231f20"/><path d="M135,30.54c-1.08-2.11-3.65-3.51-5.46-4.85l-8-6a4,4,0,0,0-6,.85,4,4,0,0,0-3.28,3.53c-1.69,9.65,5.54,17.6,11.09,24.73,2.5,3.21,7.27.93,8.36-2.21C133.25,42.16,137.4,35.23,135,30.54Z" fill="#231f20"/><path d="M121.4,61.81c-6.43,0-6.45,10,0,10S127.85,61.81,121.4,61.81Z" fill="#231f20"/><path d="M39.37,167.53c0-.13.11-.24.15-.38.65-2.38-.81-5.72-3.49-6.15-3.47-.56-7-1-10.4.26-3.91,1.47-6,4.74-7.11,8.64-.89,3.21-2.84,8.09-1,11.22,1.92,3.28,6.53,3.72,9.91,3.25,6.27-.87,13.1-6.34,13.1-13.16A6,6,0,0,0,39.37,167.53Z" fill="#231f20"/><path d="M42.49,179.35c-6.43,0-6.45,10,0,10S48.94,179.35,42.49,179.35Z" fill="#231f20"/></svg>