<svg xmlns="http://www.w3.org/2000/svg" width="290.55" height="259.78" viewBox="0 0 290.55 259.78"><title>n</title><path d="M298.93,131.77c-14.21-5.56-31.14-3-46-2.56l-33.06.88,29.37-20.43c9.83-6.84,27.3-14.86,27-29a5.06,5.06,0,0,0-5-5c-36.72,1.33-73.06,8.94-109.14,16l14.49-15.78A5.06,5.06,0,0,0,173,67.31a158.51,158.51,0,0,0-44.24,4c6.21-7.18,11.6-15,15.11-24.05,1.77-4.59-3.85-7.14-7.34-5.65a387.66,387.66,0,0,0-119.68,80.3,4.56,4.56,0,0,0-1.48,3.67c-5,11.16-4.59,24.24,2.56,34.46C25.81,171.32,39.47,177.9,50.81,185L91,210.16c3.11,1.95,6.18,4.25,9.62,5.53s7.19,2.51,10.79,3.77l22.47,7.85c4.06,1.42,8-3.79,5.65-7.34l-.11-.19a396.1,396.1,0,0,0,40.2,17.9c3.72,1.42,7-2.75,6.15-6.15l-1.18-4.68a144.18,144.18,0,0,0,44.82,7c4.52,0,6.34-5.37,3.54-8.54q-13.5-15.22-26.22-31.1l27.17,12c4.47,2,9.3-2.13,6.84-6.84-2.11-4-4.1-8.14-5.82-12.36-1.13-2.76-4.55-8.16-2.26-11,.94-1.15,3.45-1.83,4.82-2.54l6.1-3.17,11.32-5.89,45.28-23.56C304.31,138.74,302.62,133.22,298.93,131.77Z" transform="translate(-12.03 -32.37)" fill="#231f20"/><path d="M242.64,38.09a220.56,220.56,0,0,0-36.47,5.62c1.48-2.89,1.86-5.91.3-8.87a5.07,5.07,0,0,0-5.65-2.3,61.06,61.06,0,0,0-25.87,14.85,4.58,4.58,0,0,0-1.52,3.19A8.32,8.32,0,0,0,174.9,62c5.7,4.29,15.64,1.41,22,.52a190,190,0,0,0,26.71-5.71c7.52-2.19,17.1-4.22,22.57-10.2C248.89,43.66,247.2,37.77,242.64,38.09Z" transform="translate(-12.03 -32.37)" fill="#231f20"/><path d="M224.37,279.36q-13.42-7.49-27.29-14.07a4.45,4.45,0,0,0-3.54-4.11C181,258,170.93,248.36,157.4,248.77c-5.86.18-6.5,7.87-1.33,9.82l2.58,1a5.27,5.27,0,0,0,2.2,3.41l3.23,2.29a4.84,4.84,0,0,0,2.27,3.81l20.16,13.35c3.21,2.12,7.36-.8,7.59-4.14,8.68,4.77,17.56,9.06,27.75,10.37C226.93,289.33,228.42,281.62,224.37,279.36Z" transform="translate(-12.03 -32.37)" fill="#231f20"/><path d="M271.14,220.3a34.45,34.45,0,0,0-23.5-8.46,4.67,4.67,0,0,0-4.35,2.82c-1.15-3.8-6.79-5.81-9-1.34-4.67,9.53,9.56,13.64,15.87,17,4.6,2.44,9.15,5,13.83,7.27,3.57,1.74,8.09,4.12,11.92,1.58C283.59,234.09,275.73,224.3,271.14,220.3Z" transform="translate(-12.03 -32.37)" fill="#231f20"/><path d="M131.15,283.71,97.52,251.18q7.9,4,15.78,8.12c3.45,1.8,9.1-1.29,7.34-5.65-2.54-6.32-7.39-9.64-13-13.12q-10.42-6.44-20.85-12.85L44.24,201.45a5.46,5.46,0,0,0-1.1-.52c-1.12-.91-2.24-1.82-3.38-2.71a5.44,5.44,0,0,0-5.65-.77c-4-3.06-10.75,1.78-7.44,6.41l58.47,81.71c3.23,4.52,10.44,1.91,9.14-3.85a67.14,67.14,0,0,0-3.72-11.19l1.4,1a275.05,275.05,0,0,0,33.13,20.05C130,294.08,135.4,287.82,131.15,283.71Z" transform="translate(-12.03 -32.37)" fill="#231f20"/><path d="M57.44,62.76a5,5,0,0,0-4.32-2.48c-5.28,0-9.78,6.49-13,10A127.29,127.29,0,0,0,28.41,85.65c-2.46,3.74,1,7.3,4.45,7.34a4.21,4.21,0,0,0,6-.67q6.92-8.06,13.84-16.12C55.87,72.52,60.29,67.8,57.44,62.76Z" transform="translate(-12.03 -32.37)" fill="#231f20"/></svg>