<svg xmlns="http://www.w3.org/2000/svg" width="345.35" height="345.35" viewBox="0 0 345.35 345.35"><title>pink</title><path d="M317,140.52c-4.33-9.36-13.64-11.76-23-13.43-7.32-1.32-17.69-3.3-25.26-7.87-1.3-2.33-2.69-4.6-4.15-6.82,2.85-3.56,5.78-7.06,8.75-10.52C279,95.39,284.85,89,289.08,81.51c7-12.31,9-29.57-1.83-40.5-12.64-12.76-31.21-5.68-44.07,2.56-8.92,5.72-17.53,11-27.86,13.83A75.68,75.68,0,0,1,193.16,60c-4-1.22-8-2.63-11.91-4.18-15-5.94-29.35-15.57-45.61-17.68-23.79-3.09-44.36,11.26-53.78,31.57-8.27,4.66-18.23,7.41-25.28,13.51-10.33,8.94-16.13,23.28-15.3,36.88.71,11.65,6.27,21.24,13,30.22,2.34,4.91,4.19,10,6.06,15.16q1.16,3.18,2.4,6.3c0,.29,0,.57,0,.86a110.23,110.23,0,0,0,3.23,26.55,169,169,0,0,1-9,54.16c-3.35,10.09-8,21.39-7.51,32.22s10.35,16.18,20.06,17.17c11.09,1.14,21.69-3.59,31-9.11,10-5.93,19.58-12.08,30.51-16.21q2-.74,4-1.44c.62.23,1.26.43,1.89.65,9.35,4.11,17.41,11.25,24.25,18.72,10.08,11,18.45,24.71,32.18,31.63,11.56,5.83,26.57,6.7,36.65-2.56,9.66-8.87,10.61-23,11.4-35.27.84-13,2.84-25.93,8.08-37.68a110.15,110.15,0,0,0,24.75-36.22c15.67-12.67,33.11-27,41.19-45.51C319.22,160.82,321.32,149.76,317,140.52Z" fill="#ff1493"/><path d="M325.14,194.32c-3.83-3.87-10-3.18-14,0-5.23,4.15-8.81,11.39-12.56,16.8a4.63,4.63,0,0,0-.88,2.46c-.88,3.83,3.87,7.16,7.54,5.24,5.8-3,12.81-5.65,17.9-9.8C327.5,205.48,329.49,198.71,325.14,194.32Z" fill="#ff1493"/><path d="M315.58,107.34s0,0,0-.06c-.35-3.08-2.92-5.87-6.33-4.82a25.43,25.43,0,0,0-7.77,3.84,6.27,6.27,0,0,0-2.34,3.34,4.25,4.25,0,0,0-.67,1.45c-.47,2.06.27,4.65,2.3,5.65a10,10,0,0,0,10.12-.53,12,12,0,0,0,1.13-.88,14,14,0,0,0,2.65-2.15A5.24,5.24,0,0,0,315.58,107.34Z" fill="#ff1493"/></svg>