<svg xmlns="http://www.w3.org/2000/svg" width="300" height="300" viewBox="0 0 300 300"><title>p</title><rect x="46.96" y="155.39" width="210.68" height="94.9" fill="#fff"/><ellipse cx="212.34" cy="194.75" rx="22.48" ry="26.4" fill="#231f20"/><ellipse cx="110.12" cy="198.23" rx="22.48" ry="26.4" fill="#231f20"/><path d="M250.86,202a61.22,61.22,0,0,1-14.62,16.81c-6.94,5.67-21,13.92-30.65,13.74-10.09-.18-22.07-6.45-29.8-12l-11.92-8.62c-3-2.15-6-5.29-10-4.18-7.53,2.11-15.28,8.8-21.09,13.82-6.43,5.55-10.66,11.79-19.26,13.84-5.28,1.26-12.95-.8-18.2-1.73-5.06-.89-11.8-4.28-15.94-7.43-8.34-6.35-14.07-11.81-20.05-20.35-6.55-9.35-10.87-20-9.62-31.61.34-3.2-4.66-3.17-5,0a45.06,45.06,0,0,0-.25,5.71,2.17,2.17,0,0,0-1.36,2.2c.55,16.15-12,29-15.92,44.1-3.69,14.08-3,32.16,5.77,44.38,8.54,11.88,23.28,11.85,35.39,5.78,7.82-3.92,17.54-10.07,24.8-1.78,4.42,5,7.49,9.52,14.65,10.51,6.94,1,13.67-1.42,20-4,9.17-3.68,17.29-6.16,26.52-1.19,5.68,3.06,11.07,6.85,17.73,7.18,5.48.27,10.72-1.74,15.53-4.17,11.42-5.78,22.27-15.61,34.8-6.68,5.47,3.9,10.27,8.17,17.39,8a50.21,50.21,0,0,0,9.81-1.63,30.43,30.43,0,0,1,6.16-1c2.38,0,4.38.9,6.68,1.16,6.43.74,11.27-8.4,13.82-13.15A33,33,0,0,0,279,246.18c-2-8.83-6.51-16.88-10.16-25.1a112.09,112.09,0,0,1-8.54-30,81,81,0,0,0,2.92-17,2.24,2.24,0,0,0-.36-1.47c-.63-.91-2.36,0-4.47,8C256.84,186.41,253.14,197.85,250.86,202Z" fill="#303030" stroke="#303030" stroke-miterlimit="10" stroke-width="17.01"/><path d="M274.83,258.21a27.7,27.7,0,0,1-4.12,11.05c-1.74,2.82-4.73,8.67-8.43,8.49-3.11-.15-5.53-1.22-8.83-.83s-6.52,1.36-9.81,1.95c-8.69,1.56-13.29-3.3-20-7.74-9.42-6.27-19-3.45-28.17,1.64-5.08,2.81-10,6.16-15.49,8.08-6.83,2.39-12.5.87-18.66-2.61-5.5-3.11-10.88-6.39-17.41-6.46-7.62-.08-14.5,3.57-21.46,6.13-6.71,2.47-15.57,4.45-21.27-1.2-4.52-4.47-6.79-9.87-13.68-11-14.71-2.49-25.38,13.41-40.5,9.28-18.46-5-18.89-33.63-14.82-48.22,3.31-11.89,11.38-22.19,14.57-34,4.18,11.79,13.38,21.14,22.81,31.11,6.91,7.32,16,13.21,26,14.83,9.65,1.57,18.26,3.73,26.65-1.85s14.85-13.21,23.19-18.73q3.24-2.15,6.65-4c3.61-2,5.51-.65,8.48,1.5l15.9,11.49c7.53,5.44,18.64,9.89,28.33,10.41,9.53.51,23.11-5.67,30.13-11.28,10.06-8,17.33-16.19,22-26.2C259.6,211.56,264,222.24,269,233.3,272.49,241,275.95,249.53,274.83,258.21Z" fill="#f6a8c5"/><path d="M268,155.67A158.67,158.67,0,0,0,266.78,138c-2.63-21-12.44-41.36-24.32-58.75C229.32,60,210.1,41.8,189.77,31.48c-19.58-9.94-30.95-15.18-52.93-13.24C112.39,20.4,83.68,36,65,51.5c-4.89,4.06-9.64,8.29-14.36,12.55-4.38,4-9.4,7.84-12.13,13.27-5.48,10.92,1,22.85,7.18,31.77a2.88,2.88,0,0,0,.21.25,68.75,68.75,0,0,0-5.9,11,75,75,0,0,0-5.38,33.29c.28,3.89.7,8,3.49,10.91,3.45,3.62,9.06,5.35,13.54,7.15a153.84,153.84,0,0,0,33.77,9.08c23.72,3.7,47.81,3,71.66,1.21,24.44-1.79,49-3.82,73.18-7.88,6.39-1.07,12.76-2.31,19.08-3.77,4.79-1.11,11.78-1.69,16-4.56C268.61,163.54,268.05,159.2,268,155.67Z" fill="#303030" stroke="#303030" stroke-miterlimit="10" stroke-width="17.01"/><path d="M262.86,159.88c-1,2.65-5,2.92-7.3,3.52-5.65,1.48-11.35,2.76-17.07,3.89-22.05,4.35-44.47,6.35-66.82,8.27-20.65,1.77-41.41,3.29-62.14,2.33a194.31,194.31,0,0,1-35.06-4.56,149,149,0,0,1-17.22-5.08c-4.63-1.68-12.08-3.5-15.48-7.41C38,156.54,39.45,146.29,40,141a70.35,70.35,0,0,1,4.58-18.26c4.49-11.3,12.38-22.13,20-30.93,2.19-2.51-1.89-4.82-4.45-2.67C54.68,93.8,52.32,99.69,49,104.7,43.16,96,37.84,85,45.78,75.85c6.27-7.2,14.27-13.39,21.54-19.5C82.9,43.26,108.06,28.89,128.11,24.8s30.4-1.16,49.2,6.68c19.32,8.05,38.18,24.13,52.39,39.89,13.26,14.71,24.82,33,29.34,52.37a148.73,148.73,0,0,1,3.76,29.41C262.86,154.95,263.47,158.17,262.86,159.88Z" fill="#f6a8c5"/><path d="M216.19,75.72a188.09,188.09,0,0,0-43.47-31.83,5.71,5.71,0,0,0-6.67.62,7,7,0,0,0-4.74,2c-3.82,1.9-5.2,7.1-4.09,12,1.67,7.36,5.77,14.22,9.9,20.44,8.28,12.48,18.51,24.28,30.58,33.24,8.81,6.55,30.62,15.66,35.35-.42C237,98.44,224.82,84.23,216.19,75.72Z" fill="#f1f2f2" opacity="0.54"/><path d="M249.06,131.87c-.12-.12-.26-.23-.39-.35a12.43,12.43,0,0,0-9.54-6,12.3,12.3,0,0,0-2.28,0c-3.3-1.15-7.18-.07-8.17,3.78q-.14.54-.24,1.08c-2.24,3.56-1.61,8.11.66,11.6,3,4.63,8.48,7.78,13.57,7.17,3.15.17,6.15-.94,7.83-4.17a6.43,6.43,0,0,0,.75-2.62A9.8,9.8,0,0,0,249.06,131.87Z" fill="#f1f2f2" opacity="0.54"/></svg>