<svg xmlns="http://www.w3.org/2000/svg" width="297.1" height="297.1" viewBox="0 0 297.1 297.1"><title>p</title><path d="M100.1,122.1c-.77,2-5.3,8.29-2.33,15.41,8.36,20.07,18.84,26.45,31.13,35.16s44.66,23.17,46.78-2.21a7.27,7.27,0,0,0,0-5.84l-.06-.13c-.57-5.1,6.58-9.68,4.93-14.49-2.12-6.17-13.4-12.61-16.66-18.15-2.31-3.92-18.65-10.2-23.93-15.46-5-5-5.58-18.87-15.6-14.12C103.4,112.2,100.1,122.1,100.1,122.1Z" fill="#f6a8c5"/><path d="M177.59,134.12c-9-5.1-14.4-1-20.6-4.41s-6.93-8.13-11.21-16.69c-4-8-16.11-5.26-11.63,2.54,5.88,10.25,14.4,28.08,26.08,23.57,15-5.79,21,12.61,15.41,25.5-5.73,13.28-23.42,14.49-34.92,8.82-16.39-8.07-42-43.42-43.95-58.34-4.42-33.18-16.71-11.75-13.79.07,7.29,29.54,53.54,98.83,94,66.14C189,171.6,192.42,142.53,177.59,134.12Z" fill="#303030" stroke="#303030" stroke-miterlimit="10" stroke-width="5.67"/></svg>