<svg xmlns="http://www.w3.org/2000/svg" width="293.73" height="293.73" viewBox="0 0 293.73 293.73"><title>p</title><path d="M244.06,88.2C230.93,69,211.7,50.76,191.37,40.44,171.8,30.5,160.42,25.25,138.44,27.2,114,29.36,85.29,45,66.62,60.46,61.73,64.53,57,68.75,52.25,73c-4.38,4-9.4,7.84-12.13,13.27-5.48,10.92,1,22.85,7.18,31.77a2.88,2.88,0,0,0,.21.25,68.75,68.75,0,0,0-5.9,11c-4.24,10.44-4.68,14.27-1.89,17.2,3.45,3.62,9.06,5.35,13.54,7.15A153.84,153.84,0,0,0,87,162.75c23.72,3.7,47.81,3,71.66,1.21,24.44-1.79,49-3.82,73.18-7.88,6.39-1.07,12.76-2.31,19.08-3.77,2.2-.51,13.9-5,13.44-17.21C263.86,120.69,250.49,97.61,244.06,88.2Z" fill="#303030" stroke="#303030" stroke-miterlimit="10" stroke-width="17.01"/><path d="M257.17,145.35c-5.65,1.48-11.35,2.76-17.07,3.89-22.05,4.35-44.47,6.35-66.82,8.27-20.65,1.77-41.41,3.29-62.14,2.33a194.31,194.31,0,0,1-35.06-4.56,149,149,0,0,1-17.22-5.08c-4.63-1.68-13.81-2.5-15.48-7.41-1.33-3.92.53-5.29,2.85-11.11,4.49-11.3,12.38-22.13,20-30.93,2.19-2.51-1.89-4.82-4.45-2.67-5.54,4.68-7.89,10.56-11.25,15.57C44.76,105,39.45,93.93,47.39,84.81c6.27-7.2,14.27-13.39,21.54-19.5,15.58-13.09,40.73-27.46,60.79-31.55s30.4-1.16,49.2,6.68c19.32,8.05,38.18,24.13,52.39,39.89,13.26,14.71,24.82,33,29.34,52.37C262.9,142.33,259.45,144.76,257.17,145.35Z" fill="#f6a8c5"/><path d="M201.84,71.84A188.09,188.09,0,0,0,158.37,40a5.71,5.71,0,0,0-6.67.62,7,7,0,0,0-4.74,2c-3.82,1.9-5.2,7.1-4.09,12,1.67,7.36,5.77,14.22,9.9,20.44,8.28,12.48,18.51,24.28,30.58,33.24,8.81,6.55,30.62,15.66,35.35-.42C222.63,94.56,210.47,80.35,201.84,71.84Z" fill="#f1f2f2" opacity="0.54"/><path d="M246.77,123.62c-.12-.12-.26-.23-.39-.35a12.43,12.43,0,0,0-9.54-6,12.3,12.3,0,0,0-2.28,0c-3.3-1.15-7.18-.07-8.17,3.78q-.14.54-.24,1.08c-2.24,3.56-1.61,8.11.66,11.6,3,4.63,8.48,7.78,13.57,7.17,3.15.17,6.15-.94,7.83-4.17a6.43,6.43,0,0,0,.75-2.62A9.8,9.8,0,0,0,246.77,123.62Z" fill="#f1f2f2" opacity="0.54"/><path d="M71.63,183.42c-12.09-1.19-24.81-2.79-35.37-9.27-8.84-5.42-16.35-15.86-14.42-26.66,1.34-7.49-10.14-10.71-11.48-3.17C7.72,159.12,14.82,173,26.57,181.89c12.88,9.72,29.46,11.9,45.06,13.44C79.25,196.08,79.2,184.17,71.63,183.42Z" fill="#fafdfd" opacity="0.68"/><path d="M273.8,160.55a28.1,28.1,0,0,1-25.06,14.15c-7.66-.12-7.67,11.78,0,11.91a40.13,40.13,0,0,0,35.34-20.05C287.92,159.92,277.64,153.91,273.8,160.55Z" fill="#fafdfd" opacity="0.68"/><path d="M71.44,207.34a52.91,52.91,0,0,1-27.84-3.67c-7-3-13,7.23-6,10.28a64.25,64.25,0,0,0,33.85,5.3C78.95,218.32,79,206.41,71.44,207.34Z" fill="#fafdfd" opacity="0.68"/></svg>