<svg xmlns="http://www.w3.org/2000/svg" width="345.97" height="345.97" viewBox="0 0 345.97 345.97"><title>pink</title><path d="M290.47,189.78c2.34-10.49,13.52-20,20.33-26.94,11.64-11.8,20.14-26.85,12.72-43.3-3-6.62-7-13.91-12.28-19.79,2.17-11.48,4.48-23.15.37-34.45-4.39-12.08-15-19-27.48-20.41-14.6-1.7-28.1,4.5-41.58,9.11a112.92,112.92,0,0,1-48.7,5.55,147.08,147.08,0,0,0-19.27-7.43C157.36,47,138.93,46,123,55.34A86.54,86.54,0,0,0,97.37,78.83L93,79,67.2,79.8C59.83,80,50.65,79,44,82.84,38.77,85.92,35.79,91.59,33.4,97a107.11,107.11,0,0,0-6.89,20.16c-2.92,13.12-2.87,27.24,3.59,39.34,3.33,6.25,8.15,11.13,13.41,15.6a5.69,5.69,0,0,0,0,1.09c2.6,18.82.08,37.88-2.83,56.51-2.8,17.9-7.31,37.09-5.8,55.31,1.36,16.37,13.58,26.37,29.82,26.26,15.93-.12,29.63-9.21,42.2-18a168,168,0,0,1,28.73-16.72,110.45,110.45,0,0,0,70.77,1.31,81.46,81.46,0,0,1,15.35,8.5c16.61,11.7,30.9,27.48,52.08,30.31,18.72,2.5,34.29-8.28,40.16-25.93,6.54-19.67-1-39.63-8.39-57.86Q297,211.63,290.47,189.78Z" fill="#ff1493"/><path d="M94.76,42.32a14.91,14.91,0,0,0-2-1.22,3.92,3.92,0,0,0-3.31-2.36c-13.33-1.9-30-.19-35.16,14.65-1.68,4.84-1.91,12.28,3.4,15,5.68,2.88,14.52,1.61,20.4.07,6.55-1.71,13.88-5.09,18.06-10.6C99.83,53,100.05,46.15,94.76,42.32Z" fill="#ff1493"/><path d="M42.49,45.68c-6.43,0-6.45,10,0,10S48.93,45.68,42.49,45.68Z" fill="#ff1493"/></svg>