<svg xmlns="http://www.w3.org/2000/svg" width="313.75" height="300" viewBox="0 0 313.75 300"><title>p</title><path d="M273.72,139.63c.51,2.15.79,74,.79,74a29.09,29.09,0,0,1-29,29H90.15a29.09,29.09,0,0,1-29-29s0-68.23,0-68.67a14.59,14.59,0,0,1,.43-3.82" fill="#aeadae" stroke="#808285" stroke-miterlimit="10" stroke-width="2.83"/><path d="M265.25,142.36c.47,2,.72,67.24.72,67.24a26.58,26.58,0,0,1-26.66,26.34H96.46A26.58,26.58,0,0,1,69.8,209.6s0-62,0-62.37a13.1,13.1,0,0,1,.4-3.47" fill="#e2e2e2"/><path d="M120.15,187.72V232c0,2.58,9.31,5.46,9.31,2.41V190.13c0-2.58-9.31-5.46-9.31-2.41Z" fill="#231f20"/><path d="M208.68,187.72V232c0,2.58,9.31,5.46,9.31,2.41V190.13c0-2.58-9.31-5.46-9.31-2.41Z" fill="#231f20"/><path d="M272.72,111.74c-18.57-29-43.63-55-73.23-72.75C183.77,29.57,164.22,26.16,146,26.21c-18,.05-35.47,5.75-51.23,14.17-18.14,9.69-34,23-49.56,36.33C42.87,66.51,31.2,63.35,22,66.26,9.76,70.1,7.88,80.59,7.75,92.1c-.05,4.7.2,10,3.46,13.76s8.33,4.75,13.1,5c4.93.3,9.74.18,13.91-2.76a29.44,29.44,0,0,0,9.34-11.08,26.94,26.94,0,0,0,17.19,5,23.75,23.75,0,0,0-1.34,5.81c-.28,0-.56,0-.84,0a2.56,2.56,0,0,0-.95.19,2.09,2.09,0,0,0-1.47.48c-2.82,2.17-7.06,4.36-7.48,8.26s1.14,8.17,2.45,11.74A9,9,0,0,0,53,139c1.84,4.12,6,5.93,10.24,6.34a9,9,0,0,0,2.74,7c3,3,7.29,3.54,11.39,3.4,3.31,15,30.64,9.65,41.89,6.49a23,23,0,0,0,19.43,5.52c5.23-1,9.55,1,14.75,2,4.63.91,10.22,2.24,14.94,1.65A9.63,9.63,0,0,0,172,170.1c3-1.58,4.47-1.57,7.89-1.18a71.42,71.42,0,0,0,16.81-.09c6.18-.76,13.43-2.48,16.08-8.51,6,0,12,.18,17.91-.21,5-.33,7.74-4.31,12.78-4.29,7.6,0,15.92-3.55,18.16-11.17,9.41-.43,21.44-3.08,22-14.5C283.95,123.29,280.13,112.54,272.72,111.74Z" fill="#808285" stroke="#6d6e71" stroke-miterlimit="10" stroke-width="2.83"/><path d="M43.11,94.94c-1.26,3-4.24,6.25-6.78,8.36-3.15,2.61-6.68,2.79-10.6,2.66-3.35-.11-7.39-.31-10-2.64-3.09-2.73-3-7.45-2.94-11.22.08-7.59.29-16.49,8.12-20.1,7.39-3.4,18.26-2.42,19.79,7.15a2.16,2.16,0,0,0,.67,1.32,2,2,0,0,0-.11.89,2.33,2.33,0,0,0-.43,1c.11-.67.21-.65-.52.2a7.17,7.17,0,0,0-1.13,1.3,4.38,4.38,0,0,0,.09,3.4A18.13,18.13,0,0,0,43.82,94,2.64,2.64,0,0,0,43.11,94.94Z" fill="#fff" stroke="#a7a9ac" stroke-miterlimit="10" stroke-width="2.83"/><path d="M44.08,85.95a3.36,3.36,0,0,0,1.52-2.23,2.71,2.71,0,0,0,0-.74c27-23.22,57-48.74,94.12-51.53,17.39-1.31,37.84,1.37,53.37,9.66,14.89,8,28.47,19.2,40.6,30.85a233.09,233.09,0,0,1,33.36,40.26,2.64,2.64,0,0,0-.47,0c-8.08.4-15,3.84-21.88,7.91-7.66,4.56-15.11,8.77-23.67,11.47-8.93,2.81-18.17,4.44-27.38,6-9.88,1.67-19.79,3.39-29.83,3.58-19.44.35-39.55-4.17-58.21-9.36-8.9-2.48-16.62-6.14-23.21-12.72-4.32-4.31-8.61-8.65-14.2-10.43a2.72,2.72,0,0,0,.16-.69c.64-6.92,6-13.19,9.95-18.71A202.9,202.9,0,0,1,92.08,72.2c2.14-2.39-1.39-5.94-3.54-3.54A213.69,213.69,0,0,0,73,88.21c-2,2.87-4.06,5.66-5.75,8.58a2.76,2.76,0,0,0-.32,0C59.3,98.15,46.84,94.31,44.08,85.95Z" fill="#ed2991" stroke="#8e4371" stroke-miterlimit="10" stroke-width="5.67"/><path d="M277.77,133.17c-3.24,6.41-12,6.45-18.15,6.55a2.53,2.53,0,0,0-2.41,1.84c-.72,4.55-4.11,7.4-8.43,8.66-3.68,1.07-7.65-.13-11.24,1.19-1.44.53-2.21,1.49-3.44,2.29-2.39,1.54-4.77,1.46-7.52,1.49l-15.58.16a2.55,2.55,0,0,0-2.41,1.84c-2,7.87-16,7.34-22.18,7.2-4-.09-8.45-1.53-12.41-1-3,.39-4.55,2.76-7.54,3-4.25.39-9.31-1-13.41-1.86-3.35-.73-7.63-3-10.94-2.94a17,17,0,0,0-3.34,1,17.48,17.48,0,0,1-7.1.28,18.1,18.1,0,0,1-10-5.25,2.51,2.51,0,0,0-2.43-.64c-7,2.11-36.81,9.22-37.23-3.91a2.52,2.52,0,0,0-2.5-2.5c-3.27.25-14.37.27-10.93-6.41.81-1.58-.16-3.88-2.16-3.76-2.38.14-5,.11-7.08-1.36-2.57-1.85-3.25-5.66-.16-7.32a2.21,2.21,0,0,0,1-2.93,2.37,2.37,0,0,0-.14-1.12A38.91,38.91,0,0,1,58,120.47c-.29-1.81-.27-3.24.86-4.69.88-1.12,2.69-2.14,3.77-3,10-.07,15.53,10.37,22.89,15.58,6.27,4.44,13.72,6.94,21.1,8.85,18.48,4.78,38,9.26,57.19,8.92,9.27-.17,18.46-1.63,27.59-3.15a266.68,266.68,0,0,0,26.76-5.38,95.65,95.65,0,0,0,23.47-9.83c7.84-4.63,15.54-10.12,24.94-10.59a2.65,2.65,0,0,0,.75-.15,2,2,0,0,0,2.09.24,6.11,6.11,0,0,1,1.07-.31,2.51,2.51,0,0,0,2.24.06C277.92,118.48,279.89,129,277.77,133.17Z" fill="#f1f2f2" stroke="#a7a9ac" stroke-miterlimit="10" stroke-width="2.83"/><path d="M104.12,222.12H90.62c-7.66,0-7.67,11.91,0,11.91h13.49C111.78,234,111.79,222.12,104.12,222.12Z" fill="#fac5c5"/><path d="M245,222.12H230.42c-7.66,0-7.67,11.91,0,11.91H245C252.66,234,252.67,222.12,245,222.12Z" fill="#fac5c5"/></svg>