<svg xmlns="http://www.w3.org/2000/svg" width="313.75" height="300" viewBox="0 0 313.75 300"><title>p</title><path d="M273.72,139.63c.51,2.32.79,69.6.79,69.6,0,17.15-23,41.18-39,41.18H100.15c-16,0-39-24-39-41.18,0,0,0-63.36,0-63.84a16.82,16.82,0,0,1,.43-4.1" fill="#f8bbd5" stroke="#3c4349" stroke-miterlimit="10" stroke-width="11.34"/><path d="M118.16,187.2v44.26c0,3.68,13.3,7.8,13.3,3.45V190.65c0-3.68-13.3-7.8-13.3-3.45Z" fill="#231f20"/><path d="M206.68,187.2v44.26c0,3.68,13.3,7.8,13.3,3.45V190.65c0-3.68-13.3-7.8-13.3-3.45Z" fill="#231f20"/><path d="M275.79,111.74c-19.07-29-44.79-55-75.18-72.75-16.15-9.42-36.22-12.83-54.88-12.78-18.48.05-36.41,5.75-52.59,14.17-18.63,9.69-34.92,23-50.88,36.33-2.45-10.2-14.43-13.36-23.92-10.45C5.82,70.1,3.88,80.59,3.75,92.1c-.06,4.7.21,10,3.55,13.76s8.55,4.75,13.44,5c5.07.3,10,.18,14.28-2.76a29.65,29.65,0,0,0,9.59-11.08,28.19,28.19,0,0,0,17.65,5,23.24,23.24,0,0,0-1.38,5.81c-.29,0-.57,0-.87,0a2.69,2.69,0,0,0-1,.19,2.19,2.19,0,0,0-1.51.48c-2.9,2.17-7.25,4.36-7.68,8.26s1.17,8.17,2.52,11.74A8.85,8.85,0,0,0,50.21,139c1.89,4.12,6.16,5.93,10.52,6.34a8.85,8.85,0,0,0,2.82,7c3.09,3,7.49,3.54,11.69,3.4,3.4,15,31.46,9.65,43,6.49a24.05,24.05,0,0,0,19.95,5.52c5.37-1,9.8,1,15.14,2,4.76.91,10.5,2.24,15.34,1.65a10.06,10.06,0,0,0,3.68-1.26c3-1.58,4.59-1.57,8.1-1.18a75.27,75.27,0,0,0,17.26-.09c6.34-.76,13.78-2.48,16.51-8.51,6.12,0,12.3.18,18.39-.21,5.13-.33,7.94-4.31,13.12-4.29,7.8,0,16.34-3.55,18.65-11.17,9.66-.43,22-3.08,22.58-14.5C287.32,123.29,283.4,112.54,275.79,111.74Z" fill="#fff" stroke="#3c4349" stroke-miterlimit="10" stroke-width="11.34"/><path d="M44.08,85.95a3.36,3.36,0,0,0,1.52-2.23,2.71,2.71,0,0,0,0-.74c27-23.22,57-48.74,94.12-51.53,17.39-1.31,37.84,1.37,53.37,9.66,14.89,8,28.47,19.2,40.6,30.85a233.09,233.09,0,0,1,33.36,40.26,2.64,2.64,0,0,0-.47,0c-8.08.4-15,3.84-21.88,7.91-7.66,4.56-15.11,8.77-23.67,11.47-8.93,2.81-18.17,4.44-27.38,6-9.88,1.67-19.79,3.39-29.83,3.58-19.44.35-39.55-4.17-58.21-9.36-8.9-2.48-16.62-6.14-23.21-12.72-4.32-4.31-8.61-8.65-14.2-10.43a2.72,2.72,0,0,0,.16-.69c.64-6.92,6-13.19,9.95-18.71A202.9,202.9,0,0,1,92.08,72.2c2.14-2.39-1.39-5.94-3.54-3.54A213.69,213.69,0,0,0,73,88.21c-2,2.87-4.06,5.66-5.75,8.58a2.76,2.76,0,0,0-.32,0C59.3,98.15,46.84,94.31,44.08,85.95Z" fill="#ed2991" stroke="#3c4349" stroke-miterlimit="10" stroke-width="8.5"/></svg>