<svg xmlns="http://www.w3.org/2000/svg" width="310.66" height="297.04" viewBox="0 0 310.66 297.04"><title>p</title><path d="M256.82,182.68v-5.15c0-2.32-2.57-3-4-1.94a17.33,17.33,0,0,0-1.8.09c-.82.06-1.63.16-2.45.26q-11.65.87-23.29,1.84h-.73c-1.83-5-4.44-6.54-9.77-6-8.4.82-16.79,1.72-25.18,2.57a2.56,2.56,0,0,0-2.5,2.5,6.48,6.48,0,0,0,1.25,4.23Q141.59,185.55,95,191.58a2.71,2.71,0,0,0-2.35,1.69,2.21,2.21,0,0,0-1.55,1.65,6.27,6.27,0,0,0,.59,4.18,2,2,0,0,0,.43.55c-.33,8.29-.39,16.67,1.55,24.78,2,8.3,5.7,16.32,9,24.25a2.27,2.27,0,0,0-1.07,2.7l1,3.68a2.52,2.52,0,0,0,3.67,1.49,4.83,4.83,0,0,1,1.25-.53,8.29,8.29,0,0,0,5,.32c7.39-1.11,14.83-4.41,21.41-7.82a2.54,2.54,0,0,0,1.15-2.82q-3.23-13.51-5.77-27.17A110.14,110.14,0,0,1,145,216.17a2.06,2.06,0,0,0,1.53.66,33.94,33.94,0,0,0,6.28,18.75,24.21,24.21,0,0,0,4.61,7.41,2.54,2.54,0,0,0,3,.39,10,10,0,0,1,7-1.38,2.55,2.55,0,0,0,3-3.32,2.11,2.11,0,0,0,0-1.64,46.39,46.39,0,0,1-2.9-23.39s0-.07,0-.11q15.84-2.25,31.52-5.43a2.47,2.47,0,0,0,.8-.32c5.89-.51,11.47-2.59,17.17-4.08,6-1.58,12.11-2.86,18.24-3.92a2.51,2.51,0,0,0,2,.47l5.31-.95a2.58,2.58,0,0,0,3.21.79c2.07-1,4.71-1.75,6.9-2.94.75-.25,1.51-.47,2.29-.68a2.55,2.55,0,0,0,1.84-2.41v-2c0-.05,0-.1,0-.15A51.85,51.85,0,0,0,256.82,182.68Z" fill="#6d6e71"/><path d="M129.52,243.68a2.47,2.47,0,0,0-1,.9c-1.16,1.85-5,2.6-6.92,3.3a54.81,54.81,0,0,1-6.72,2.12,32.7,32.7,0,0,1-4.75.57c-.41-.83-.58-2.17-1-3a2,2,0,0,0-2.16-1.27c-2.92-7-6.07-14.14-8.1-21.45-2.23-8-2.18-16.39-1.85-24.66a2.47,2.47,0,0,0,.33-1.23l0-2.7q14.18-1.83,28.38-3.49a39.85,39.85,0,0,1,1.93,10.5c.13,3.24,0,6.35.81,9.52a2.59,2.59,0,0,0,.29.68c-1,.23-2.08.46-3.12.71a2.56,2.56,0,0,0-1.75,3.08Q126.45,230.54,129.52,243.68Z" fill="#bcbec0" stroke="#939598" stroke-miterlimit="10"/><path d="M159.86,238.13a18.7,18.7,0,0,1-1.21-1.85,2.53,2.53,0,0,0-.58-2c-.33-.4-.62-.82-.93-1.23-2.1-5.73-1.72-12.27-1.25-18.44a53.35,53.35,0,0,1,6.59-.62,51.07,51.07,0,0,0,2.57,23A15,15,0,0,0,159.86,238.13Z" fill="#939598" stroke="#808285" stroke-miterlimit="10"/><path d="M236.91,194.49a2.81,2.81,0,0,0-.47,0c-6.38,1-12.72,2.32-19,3.9s-12.73,4.27-19.32,4.49a2.41,2.41,0,0,0-1.55.59q-16,3.22-32.18,5.47a57.71,57.71,0,0,0-15.16,2,116.17,116.17,0,0,0-15.76,1.66,2.54,2.54,0,0,0,0-1.12c-.94-3.61-.45-7.39-.84-11.08a45.27,45.27,0,0,0-1.68-8.21q47-5.48,94.13-9.39,5.95,0,11.88-.46Z" fill="#ec008c" stroke="#58595b" stroke-miterlimit="10"/><path d="M251.81,189.49a4.5,4.5,0,0,1-2.54,3.52,28.4,28.4,0,0,1-7.35,1.64V181.89c1.4-.14,2.8-.3,4.19-.48.59-.08,1.37-.29,2.18-.45l2.06-.16a2.6,2.6,0,0,1,.83.22c.25,1,.48,2.21.64,3.41Z" fill="#939598" stroke="#808285" stroke-miterlimit="10"/><rect x="59.77" y="199.39" width="53.81" height="53.81" rx="21" ry="21" fill="#d1d3d4" stroke="#939598" stroke-miterlimit="10" stroke-width="5.67"/><rect x="197.09" y="196.61" width="53.81" height="53.81" rx="21" ry="21" fill="#d1d3d4" stroke="#939598" stroke-miterlimit="10" stroke-width="5.67"/></svg>