<svg xmlns="http://www.w3.org/2000/svg" width="250.47" height="245.8" viewBox="0 0 250.47 245.8"><title>rock1</title><path d="M275.54,164.25q-.67-12.42-1.47-24.84-1.64-25.32-3.82-50.61c-.52-6.05-.1-13.15-5-17.53-4.61-4.08-11.36-2.93-11.62-10.46-.26-7.74.17-15.33-.77-23.06-.72-6-2.11-11.38-9.13-11.83-7.9-.51-16.25.67-24.17,1l-25.76,1.15-49.53,2.21-.55,0-16.62-6.61c-6.55-2.6-13.05-5.81-20.13-6.58-7.65-.83-15.57-.25-23.26-.22L58.07,17a4.57,4.57,0,0,0-4.5,3.11,4.37,4.37,0,0,0-1,3.25C53.09,30.11,47.88,37,45.28,43c-2.69,6.23-5.11,12.57-7.18,19q-.8,2.51-1.53,5L32.08,77.21C29.73,82.48,26.5,88,25.82,93.82c-.63,5.39,1.59,9.72,4.28,14.22q4.64,7.75,9,15.67c3.91,7.12,7.6,14.36,11.12,21.68-1.85,2-3.66,4.07-5.42,6.15-5.25,6.24-5.73,12.63-5.48,20.55q.91,29.08,4.13,58c.3,2.76,2,4.91,5,5q18.1.57,36.18,1.72l3.77,7c2.42,4.52,4.51,10.25,7.88,14.14,3.08,3.54,7.58,3.12,11.87,3.09l18.82-.13,68.9-.46a12.07,12.07,0,0,0,5.36,1.64c12.18,1,24.86-.12,37.08-.23,3,0,4.65-2.29,5-5l1.89-14.74,6.3-.54c3.1-.27,6.59-.18,9.31-1.87,5.74-3.57,4.77-13,5.12-18.81.48-8,.32-15.87.38-23.83,0-3.37,1.45-3.6,3.86-5.62a15.2,15.2,0,0,0,4.7-6.81C277.1,178.26,275.89,170.85,275.54,164.25Z" transform="translate(-25.71 -16.71)" fill="#525d63"/><path d="M263.39,161.85q-.6-11.21-1.33-22.42-1.48-22.86-3.45-45.68c-.47-5.46-.09-11.87-4.55-15.82-4.16-3.68-10.26-2.65-10.48-9.44-.24-7,.15-13.83-.69-20.81-.65-5.38-1.9-10.27-8.24-10.68-7.13-.46-14.67.61-21.81.93L189.6,39l-44.7,2-.5,0-15-6c-5.91-2.35-11.78-5.25-18.17-5.94-6.91-.75-14-.23-21-.2L67.13,29a4.12,4.12,0,0,0-4.06,2.81,4,4,0,0,0-.87,2.93c.42,6.06-4.28,12.3-6.62,17.71C53.15,58.05,51,63.78,49.1,69.61q-.72,2.26-1.38,4.55l-4.06,9.13c-2.11,4.76-5,9.75-5.65,15-.57,4.87,1.44,8.77,3.86,12.83q4.19,7,8.13,14.14c3.53,6.43,6.86,13,10,19.56-1.67,1.82-3.3,3.67-4.89,5.55-4.74,5.63-5.17,11.4-4.95,18.55q.82,26.24,3.73,52.36c.27,2.49,1.85,4.43,4.51,4.51q16.34.51,32.65,1.55l3.4,6.34c2.19,4.08,4.07,9.25,7.11,12.76,2.78,3.2,6.84,2.82,10.71,2.79l17-.11,62.18-.42a10.89,10.89,0,0,0,4.84,1.48c11,.87,22.43-.11,33.46-.21,2.67,0,4.2-2.07,4.51-4.51l1.7-13.3,5.69-.49c2.8-.24,5.95-.16,8.4-1.69,5.18-3.22,4.3-11.7,4.62-17,.43-7.18.29-14.33.34-21.51,0-3,1.31-3.25,3.49-5.07a13.71,13.71,0,0,0,4.24-6.14C264.8,174.49,263.71,167.81,263.39,161.85Z" transform="translate(-25.71 -16.71)" fill="#3b4349"/><path d="M245.22,158.26q-.51-9.4-1.11-18.79-1.24-19.16-2.89-38.29c-.4-4.58-.07-9.95-3.81-13.26-3.48-3.09-8.6-2.22-8.79-7.91-.2-5.86.13-11.6-.58-17.45-.54-4.51-1.6-8.61-6.91-9-6-.38-12.3.51-18.29.78l-19.49.87-37.48,1.67-.42,0-12.57-5c-5-2-9.88-4.4-15.23-5-5.79-.63-11.78-.19-17.6-.17l-19.38.07a3.45,3.45,0,0,0-3.4,2.36,3.31,3.31,0,0,0-.73,2.46C76.9,56.76,73,62,71,66.52c-2,4.71-3.87,9.51-5.43,14.4q-.61,1.9-1.16,3.81L61,92.39c-1.77,4-4.22,8.17-4.74,12.57-.48,4.08,1.2,7.35,3.24,10.76q3.51,5.87,6.81,11.85c3,5.39,5.75,10.87,8.41,16.4-1.4,1.53-2.77,3.08-4.1,4.65-4,4.72-4.33,9.55-4.15,15.55q.69,22,3.13,43.89a3.89,3.89,0,0,0,3.78,3.78q13.7.43,27.37,1.3l2.85,5.32c1.83,3.42,3.41,7.76,6,10.7,2.33,2.68,5.73,2.36,9,2.34l14.24-.1,52.13-.35a9.13,9.13,0,0,0,4.06,1.24c9.21.73,18.81-.09,28.05-.18,2.24,0,3.52-1.73,3.78-3.78l1.43-11.15,4.77-.41c2.34-.2,5-.13,7-1.41,4.34-2.7,3.61-9.81,3.87-14.23.36-6,.24-12,.28-18,0-2.55,1.1-2.72,2.92-4.25a11.5,11.5,0,0,0,3.56-5.15C246.4,168.86,245.49,163.25,245.22,158.26Z" transform="translate(-25.71 -16.71)" fill="#21292d"/></svg>