<?xml version="1.0" encoding="iso-8859-1"?>
<!-- Generator: Adobe Illustrator 19.0.0, SVG Export Plug-In . SVG Version: 6.00 Build 0)  -->
<svg version="1.1" id="Capa_1" xmlns="http://www.w3.org/2000/svg" xmlns:xlink="http://www.w3.org/1999/xlink" x="0px" y="0px"
	 viewBox="0 0 512.001 512.001" style="enable-background:new 0 0 512.001 512.001;" xml:space="preserve">
<ellipse style="fill:#F3CE72;" cx="256.002" cy="276.111" rx="253.11" ry="235.89"/>
<path style="opacity:0.08;enable-background:new    ;" d="M111.411,254.551c5.754-1.983,12.154,0.022,15.61,5.031
	c18.307,26.533,53.445,59.421,128.981,59.421s110.675-32.888,128.981-59.421c3.456-5.009,9.856-7.014,15.61-5.031
	c36.915,12.722,66.284,2.434,86.315-16.832c7.011-6.743,11.418-15.303,13.13-24.372c-29.491-99.805-127.569-173.12-244.036-173.12
	c-139.79,0-253.113,105.61-253.113,235.887c0,130.277,113.323,235.887,253.113,235.887c75.97,0,144.114-31.199,190.509-80.59
	c-42.423,31.741-96.141,50.717-154.581,50.717c-136.29,0-246.923-103.159-248.354-230.92
	C61.745,260.882,84.583,263.797,111.411,254.551z"/>
<g style="opacity:0.1;">
	<circle cx="103.952" cy="409.601" r="7.287"/>
	<circle cx="49.923" cy="309.061" r="7.287"/>
	<circle cx="80.832" cy="283.401" r="7.287"/>
	<circle cx="144.832" cy="432.081" r="7.287"/>
	<circle cx="448.472" cy="294.491" r="7.287"/>
	<circle cx="466.102" cy="336.141" r="7.287"/>
</g>
<path style="fill:#C06376;" d="M256.002,25.132c-103.329,0-193.28,54.566-238.668,134.504c-10.462,18.427-7.51,41.727,7.762,56.416
	c20.032,19.266,49.4,29.554,86.315,16.832c5.754-1.983,12.154,0.022,15.61,5.031c18.306,26.533,53.445,59.421,128.981,59.421
	s110.675-32.888,128.981-59.421c3.456-5.009,9.856-7.014,15.61-5.031c36.915,12.722,66.284,2.434,86.315-16.832
	c15.272-14.689,18.224-37.989,7.762-56.416C449.282,79.698,359.331,25.132,256.002,25.132z"/>
<path style="opacity:0.1;enable-background:new    ;" d="M313.911,254.215c-66.858,26.247-112.741-14.759-130.151-71.314
	c-21.938-71.263,15.354-131.12,51.648-157.034c-94.596,6.705-175.73,59.191-218.074,133.769
	c-10.462,18.427-7.51,41.727,7.762,56.416c20.032,19.266,49.4,29.554,86.315,16.833c5.754-1.983,12.154,0.022,15.61,5.031
	c18.307,26.533,53.445,59.421,128.981,59.421c47.253,0,78.696-12.871,100.1-29.004C366.511,252.443,364.385,234.4,313.911,254.215z"
	/>
<path style="fill:#F3CE72;" d="M480.852,60.205l-44.511-16.844c-8.538-3.231-17.935,1.971-19.73,10.921l-9.787,48.799
	c-1.498,7.468,2.923,14.852,10.212,17.059l18.374,5.564c5.329,1.614,11.113,0.096,14.964-3.925l35.924-37.518
	C493.627,76.607,490.763,63.956,480.852,60.205z"/>
<path style="fill:#FFFFFF;" d="M352.908,217.255c-11.082,0.001-24.658-3.816-35.804-18.534c-7.719-10.193-12.544-23.237-17.21-35.85
	c-11.197-30.268-17.107-39.496-32.246-38.183c-10.386,0.892-13.164,5.892-17.49,31.469c-2.005,11.852-4.077,24.108-9.852,34.762
	c-7.763,14.326-20.808,22.483-37.725,23.59c-11.843,0.77-21.748-2.255-29.43-9.006c-14.321-12.587-15.617-32.998-16.869-52.737
	c-0.646-10.181-1.314-20.708-3.825-27.326c-1.712-4.513-3.096-5.036-6.33-5.296c-17.786-1.435-33.528,24.013-46.194,44.453
	l-1.161,1.873c-5.008,8.07-15.61,10.553-23.681,5.546c-8.071-5.008-10.554-15.61-5.546-23.681l1.15-1.856
	c16.664-26.893,39.474-63.716,78.181-60.622c11.927,0.957,27.81,6.484,35.739,27.382c4.35,11.466,5.185,24.623,5.993,37.349
	c0.615,9.691,1.645,25.911,5.25,29.08c0.414,0.362,1.992,0.683,4.477,0.518c8.785-0.575,11.574-4.139,15.908-29.766
	c2.039-12.055,4.147-24.519,10.094-35.487c7.897-14.561,21.164-23.039,38.366-24.517c19.665-1.68,35.771,5.274,47.884,20.692
	c9.132,11.622,14.435,25.961,19.565,39.828c9.968,26.95,14.234,32.884,22.831,31.781c11.957-1.543,14.444-6.481,16.627-33.019
	c1.656-20.128,3.716-45.177,26.51-57.957c8.283-4.646,18.766-1.695,23.412,6.59c4.645,8.285,1.695,18.767-6.59,23.412
	c-6.375,3.574-7.672,14.011-9.051,30.776c-1.036,12.597-2.108,25.623-7.603,37.33c-7.178,15.294-20.63,24.623-38.902,26.981
	C357.362,217.093,355.187,217.255,352.908,217.255z"/>
<path style="fill:#F3CE72;" d="M70.059,45.161l36.911,64.714c2.924,5.126,9.224,7.251,14.655,4.941l43.188-18.365
	c3.682-1.566,6.301-4.914,6.934-8.865l11.863-74.104c1.357-8.479-6.625-15.455-14.845-12.974L76.801,28.264
	C69.648,30.423,66.357,38.671,70.059,45.161z"/>
<g>
	<path style="fill:#7DD49B;" d="M337.828,96.836c-2.13,0-4.246-0.902-5.729-2.655c-2.675-3.162-2.281-7.895,0.881-10.57
		l10.812-9.148c3.163-2.674,7.895-2.279,10.57,0.881c2.675,3.162,2.281,7.895-0.881,10.57l-10.812,9.148
		C341.26,96.253,339.539,96.836,337.828,96.836z"/>
	<path style="fill:#7DD49B;" d="M468.392,195.808c-1.207,0-2.43-0.291-3.565-0.906l-19.96-10.811
		c-3.642-1.973-4.995-6.524-3.022-10.167c1.973-3.643,6.524-4.996,10.167-3.022l19.96,10.811c3.643,1.973,4.996,6.525,3.023,10.167
		C473.636,194.386,471.056,195.808,468.392,195.808z"/>
	<path style="fill:#7DD49B;" d="M287.098,253.194c-2.45,0-4.851-1.199-6.289-3.404c-2.263-3.469-1.284-8.116,2.185-10.379
		l19.129-12.476c3.471-2.262,8.116-1.284,10.379,2.186c2.263,3.469,1.284,8.116-2.185,10.379l-19.129,12.476
		C289.923,252.8,288.502,253.194,287.098,253.194z"/>
	<path style="fill:#7DD49B;" d="M210.52,86.226c-1.813,0-3.63-0.652-5.07-1.975c-3.052-2.802-3.254-7.546-0.453-10.598
		l16.634-18.119c2.802-3.051,7.547-3.254,10.597-0.453c3.052,2.802,3.254,7.546,0.453,10.598l-16.634,18.119
		C214.567,85.408,212.546,86.226,210.52,86.226z"/>
	<path style="fill:#7DD49B;" d="M101.624,207.565H80.832c-4.142,0-7.5-3.358-7.5-7.5c0-4.143,3.358-7.5,7.5-7.5h20.792
		c4.142,0,7.5,3.357,7.5,7.5S105.766,207.565,101.624,207.565z"/>
</g>
<path style="fill:#F3CE72;" d="M272.417,21.292l5.944,37.307c1.398,8.774,10.619,13.945,18.834,10.561l51.209-21.09
	c12.079-4.975,11.082-22.402-1.484-25.968L289.766,5.886C280.091,3.141,270.834,11.361,272.417,21.292z"/>
<g>
	<path style="fill:#485358;" d="M159.403,360.12c-4.142,0-7.5-3.357-7.5-7.5v-16.475c0-4.143,3.358-7.5,7.5-7.5s7.5,3.357,7.5,7.5
		v16.475C166.903,356.763,163.545,360.12,159.403,360.12z"/>
	<path style="fill:#485358;" d="M352.601,360.12c-4.142,0-7.5-3.357-7.5-7.5v-16.475c0-4.143,3.358-7.5,7.5-7.5s7.5,3.357,7.5,7.5
		v16.475C360.101,356.763,356.743,360.12,352.601,360.12z"/>
	<path style="fill:#485358;" d="M284.826,365.227c0,15.696-13.003,28.355-28.824,27.792c-15.07-0.536-26.796-13.379-26.796-28.459
		v-19.561c0-4.188,3.395-7.583,7.583-7.583h40.455c4.188,0,7.583,3.395,7.583,7.583v20.228H284.826z"/>
</g>
<g>
</g>
<g>
</g>
<g>
</g>
<g>
</g>
<g>
</g>
<g>
</g>
<g>
</g>
<g>
</g>
<g>
</g>
<g>
</g>
<g>
</g>
<g>
</g>
<g>
</g>
<g>
</g>
<g>
</g>
</svg>
