<?xml version="1.0" encoding="utf-8"?>
<!-- Generator: Adobe Illustrator 20.0.0, SVG Export Plug-In . SVG Version: 6.00 Build 0)  -->
<svg version="1.1" id="Layer_1" xmlns="http://www.w3.org/2000/svg" xmlns:xlink="http://www.w3.org/1999/xlink" x="0px" y="0px"
	 viewBox="0 0 157.6 199.7" style="enable-background:new 0 0 157.6 199.7;" xml:space="preserve">
<path d="M149.7,73.6C125.6,57.8,101,42.9,75.8,29c-12.4-6.9-25-13.5-37.7-19.9C27.1,3.5,15.7-4.1,3.4,2.6C1.1,3.9,0.6,6.1,1.2,8.1
	C1,8.6,0.8,9.2,0.8,9.9c-1.4,49-1,97.9,1.1,146.9c0.3,6.4,9.7,6.4,10,0c0.2-5.4,0.4-10.9,0.9-16.3c5.7,6.4,12,12.2,18.9,17.4
	c3.2,2.4,7.5-0.9,7.5-4.3c0-2.5,0-5,0-7.5c7,9.2,14.4,18.2,22.8,26.2c5.5,5.2,11.4,10.3,18,14.1c4.8,2.8,15.3,8.6,20.4,3.6
	c2.3-2.3,2.2-5.6,1-8.4c-1.9-4.5-5.4-8.8-8.1-13c-5-7.8-9.9-15.7-14.9-23.5C72,134.9,65.5,124.7,59,114.5
	c17.5,11.4,35.6,21.9,55.2,29.5c5,1.9,7.9-5,4.9-8.4c-3.2-3.6-6.3-7.3-9.2-11.2c4.7,1.7,9.5,3.3,14.3,4.8c5.7,1.8,8.3-6.1,3.9-9.1
	c-16.7-11.7-32.2-25-46.4-39.7c6.5-0.4,12.9-1,19.3-1.8c1.5-0.2,2.7-1,3.6-2.1c4.9,1,9.7,2,14.6,3.1c1.7,0.4,3.5-0.1,4.8-1.2
	c0.2,0,0.5,0,0.8,0.1c0.6,0.1,1.3,0.3,1.9,0.4c2.2,0.4,4.5,0.9,6.7,1.3c4.1,0.8,8.3,1.7,12.4,2.5C151.4,83.9,154.5,76.8,149.7,73.6z
	"/>
</svg>
