<?xml version="1.0" encoding="utf-8"?>
<!-- Generator: Adobe Illustrator 20.0.0, SVG Export Plug-In . SVG Version: 6.00 Build 0)  -->
<svg version="1.1" xmlns="http://www.w3.org/2000/svg" xmlns:xlink="http://www.w3.org/1999/xlink" x="0px" y="0px"
	 viewBox="0 0 163.3 199.7" style="enable-background:new 0 0 163.3 199.7;" xml:space="preserve">
<g id="Layer_1">
	<path d="M-61.2,73.6c-24-15.8-48.7-30.7-73.8-44.6c-12.4-6.9-25-13.5-37.7-19.9c-11-5.6-22.4-13.1-34.7-6.4
		c-2.3,1.3-2.8,3.5-2.2,5.4c-0.2,0.5-0.4,1.2-0.4,1.9c-1.4,49-1,97.9,1.1,146.9c0.3,6.4,9.7,6.4,10,0c0.2-5.4,0.4-10.9,0.9-16.3
		c5.7,6.4,12,12.2,18.9,17.4c3.2,2.4,7.5-0.9,7.5-4.3c0-2.5,0-5,0-7.5c7,9.2,14.4,18.2,22.8,26.2c5.5,5.2,11.4,10.3,18,14.1
		c4.8,2.8,15.3,8.6,20.4,3.6c2.3-2.3,2.2-5.6,1-8.4c-1.9-4.5-5.4-8.8-8.1-13c-5-7.8-9.9-15.7-14.9-23.5
		c-6.5-10.2-12.9-20.5-19.4-30.7c17.5,11.4,35.6,21.9,55.2,29.5c5,1.9,7.9-5,4.9-8.4c-3.2-3.6-6.3-7.3-9.2-11.2
		c4.7,1.7,9.5,3.3,14.3,4.8c5.7,1.8,8.3-6.1,3.9-9.1c-16.7-11.7-32.2-25-46.4-39.7c6.5-0.4,12.9-1,19.3-1.8c1.5-0.2,2.7-1,3.6-2.1
		c4.9,1,9.7,2,14.6,3.1c1.7,0.4,3.5-0.1,4.8-1.2c0.2,0,0.5,0,0.8,0.1c0.6,0.1,1.3,0.3,1.9,0.4c2.2,0.4,4.5,0.9,6.7,1.3
		c4.1,0.8,8.3,1.7,12.4,2.5C-59.5,83.9-56.3,76.8-61.2,73.6z"/>
</g>
<g id="Layer_2">
	<path d="M137.2,71.6c-3.6-1.6-5.3-2.7-6.7-6.7c-0.8-2.5-1.2-5.1-1.8-7.7c-1.4-6.7-3.3-13.2-6.3-19.2c-5.5-11.1-15-19.6-26.8-20.8
		c-5.1-0.5-10.2,0.5-14.7,3.1c-4.5,2.7-9.5,10.6-15.2,8.7c-6.7-2.2-13.6-7.8-19.7-11.5c-5.2-3.1-11-7.9-17.2-7.6
		c-5.8,0.2-9.6,5.4-12.9,9.9C11.6,25.6,8,31.8,5.3,38.5c-5.2,13.1-6,27.6-0.5,40.8c3.9,9.3,10.5,16.8,18.5,21.7
		c-3,4.7-4.8,11.1-6.1,15.6c-2.4,8.3-2.6,17.7,1.3,25.5c3.2,6.3,8.8,10.1,14.5,13.3c5.1,2.9,11.7,5.6,12.3,12.6
		c0.7,8.5-0.3,16.6,7.8,21.4c6.1,3.6,13.5,2.9,19.7,0.4c7.4-3.1,13.6-8.6,20.9-12c9.9-4.6,18,0.5,26.3,6.4c2.4,1.7,5.8,0.5,7.2-2
		c3.3-5.7,6.7-11.7,8.3-18.3c1.9-7.8,0.2-15-0.2-22.8c-0.7-15.3,11.7-26.5,14.5-40.9C152.1,88.2,147.8,76.4,137.2,71.6z"/>
	<path d="M155.2,35.4c0.6-2.2,0.7-4.3-0.2-6.5c-0.9-2.1-2.5-3.6-4.5-4.6c-0.6-0.9-1.5-1.6-3-1.8c-3.9-0.7-8.1-1-11.1,2.1
		c-0.2,0.2-0.4,0.4-0.5,0.6c-4.7,2.9-7.2,8.4-7.3,13.9c-0.1,4.3,1.4,13.6,5.1,17.2c0.3,3.2,1.2,5.9,4.3,7.9c2.5,1.6,5.3,0.3,6.8-1.8
		c4.3-5.8,10.4-14,11.1-21.5C156.1,38.8,155.8,37,155.2,35.4z"/>
	<path d="M32,166.1c-2.7-2.7-5.4-6.3-9.3-7.2c-4-0.9-7.8,1.9-8.9,5.7c-1,3.7,0.5,7.6,3.9,9.5c2.7,1.5,6.1,1.5,8.9,0.2
		C31,176.1,36.1,170.1,32,166.1z"/>
</g>
<g id="Layer_3">
	<path d="M326.2,117.9c3.4-4.8,5.2-10.5,3-16.2c-2-5.2-6.6-8.3-10.5-12c-5-4.9-4.3-10.3-3-16.7c1.4-6.7,3.1-13.9,0.9-20.6
		c-1.9-5.8-7.4-13.8-13.4-15.9c-7.7-2.7-11.3,4.2-17,7.5c-7,4.1-18.3,1.9-26,1.7c-0.5,0-0.9,0-1.3,0.1c-0.5-0.4-0.9-0.9-1.4-1.3
		c-5.3-4.9-18.1-12.8-25-6.1c-3.1,3-3.3,9.6-3.7,13.7c-0.6,5.2-0.6,10.4,0,15.5c1.1,9.2,3.8,18,8.1,26.1
		c-10.7,7.4-21.1,15.6-26.2,28c-2.7,6.4-3.8,13.7-2.1,20.6c1.6,6.5,6.1,10.1,12.4,11.7c7.3,1.8,15.1,1,22.1,3.6
		c8.5,3.1,8.1,9.4,9.4,17.1c1,6.1,4.3,11.4,11.2,10.6c7.1-0.8,13.1-7.5,19.2-10.8c5.8-3.2,13.6-5.4,19.3-0.8
		c4.5,3.6,9.6,8.9,15.5,4.2c4.9-3.9,5.2-13.1,5.4-18.8c0.3-7.6-1.6-14.6-2.9-22c-0.7-3.7-1.1-7.8,0.6-11.3
		C322.2,122.9,324.5,120.5,326.2,117.9z"/>
	<path d="M297.8,25.1c-0.2-2.4-1.5-4.3-3.6-5.4c-1.9-1-6.3,0-7.7-1.3c-0.8-0.7-0.7-4.2-1.3-5.5c-1.1-2.1-3.1-3.7-5.1-4.9
		c-4.1-2.4-8.7-3.3-12.5,0.1c-1.7,1.6-3.5,3.9-4.6,6.4c-4.5-4.5-9.1-8.7-16.2-5.4c-5.3,2.5-6.4,8.6-3,13.2c1.7,2.2,4,3.3,6.3,4.9
		c1.4,1,6.1,4.9,5.8,6.5c-0.5,2.5,0.7,5.5,3.5,6.2c5.9,1.3,11.3,0.2,17.1-1.2c2.8-0.7,5.6-1.4,8.4-1.4c2.7,0,5.1,0.5,7.5-1.2
		C295.5,34,298.2,28.9,297.8,25.1z"/>
	<path d="M337,30.5c-1.1-2.1-3.6-3.5-5.5-4.9c-2.7-2-5.4-4-8-6c-2.3-1.7-4.6-0.9-6,0.8c-1.6,0.3-2.9,1.4-3.3,3.5
		c-1.7,9.6,5.5,17.6,11.1,24.7c2.5,3.2,7.3,0.9,8.4-2.2C335.2,42.2,339.4,35.2,337,30.5z"/>
	<path d="M323.4,61.8c-6.4,0-6.4,10,0,10C329.8,71.8,329.8,61.8,323.4,61.8z"/>
	<path d="M241.3,167.5c0-0.1,0.1-0.2,0.1-0.4c0.7-2.4-0.8-5.7-3.5-6.2c-3.5-0.6-7-1-10.4,0.3c-3.9,1.5-6,4.7-7.1,8.6
		c-0.9,3.2-2.8,8.1-1,11.2c1.9,3.3,6.5,3.7,9.9,3.2c6.3-0.9,13.1-6.3,13.1-13.2C242.5,169.7,242,168.5,241.3,167.5z"/>
	<path d="M244.5,179.3c-6.4,0-6.4,10,0,10C250.9,189.3,250.9,179.3,244.5,179.3z"/>
</g>
</svg>
