<svg xmlns="http://www.w3.org/2000/svg" width="548.54" height="192.03" viewBox="0 0 548.54 192.03"><title>try2</title><path d="M149.67,73.61Q113.61,49.9,75.84,29,57.16,18.65,38.1,9.05C27.08,3.5,15.65-4.06,3.43,2.62A4.43,4.43,0,0,0,1.2,8.05,5.22,5.22,0,0,0,.81,9.93q-2,73.43,1.07,146.87c.27,6.43,9.74,6.45,10,0,.22-5.43.44-10.87.86-16.3a134.51,134.51,0,0,0,18.92,17.39c3.15,2.39,7.49-.88,7.52-4.32,0-2.5,0-5,0-7.49a217.16,217.16,0,0,0,22.8,26.25,97.9,97.9,0,0,0,18,14.13c4.76,2.75,15.31,8.64,20.36,3.6,2.33-2.32,2.18-5.61,1-8.4-1.9-4.54-5.43-8.82-8.06-13L78.42,145.16,59,114.47c17.55,11.39,35.6,21.91,55.22,29.52,5,1.95,7.86-5,4.86-8.36q-4.81-5.43-9.21-11.15Q117,127,124.2,129.27c5.69,1.8,8.28-6.05,3.85-9.14A311.35,311.35,0,0,1,81.69,80.48c6.46-.38,12.9-1,19.33-1.77a5.5,5.5,0,0,0,3.59-2.12q7.3,1.49,14.58,3.09A5.46,5.46,0,0,0,124,78.47a6.75,6.75,0,0,0,.81.05l1.91.38,6.69,1.34,12.43,2.5A5,5,0,0,0,149.67,73.61Z" transform="translate(0)" fill="#231f20"/><path d="M348,71.59c-3.56-1.62-5.32-2.69-6.68-6.73a65.72,65.72,0,0,1-1.75-7.7,79.11,79.11,0,0,0-6.26-19.24c-5.48-11.07-15-19.57-26.82-20.8a23.81,23.81,0,0,0-14.74,3.15c-4.49,2.67-9.46,10.64-15.17,8.74-6.73-2.24-13.56-7.82-19.69-11.48-5.22-3.11-11-7.86-17.24-7.61-5.81.23-9.61,5.41-12.95,9.92a82.37,82.37,0,0,0-10.59,18.72c-5.2,13.14-6,27.64-.54,40.82a46.35,46.35,0,0,0,18.52,21.72c-3,4.75-4.8,11.05-6.08,15.55-2.35,8.27-2.58,17.74,1.34,25.52,3.17,6.3,8.82,10.06,14.5,13.31,5.09,2.91,11.73,5.57,12.27,12.65.65,8.55-.3,16.61,7.82,21.42,6.06,3.59,13.45,2.93,19.71.35,7.43-3.06,13.61-8.64,20.87-12,9.87-4.63,18,.48,26.25,6.41,2.43,1.74,5.77.45,7.21-2,3.31-5.72,6.67-11.68,8.31-18.26,1.95-7.83.21-15-.17-22.84-.74-15.32,11.67-26.46,14.48-40.91C363,88.23,358.69,76.44,348,71.59Z" transform="translate(0)" fill="#231f20"/><path d="M366,35.42a10,10,0,0,0-.22-6.53,8.62,8.62,0,0,0-4.5-4.57,4.26,4.26,0,0,0-3-1.85c-3.86-.71-8.08-1-11.09,2.07a7.88,7.88,0,0,0-.54.61C342,28,339.49,33.54,339.41,39c-.06,4.28,1.36,13.56,5.1,17.22.29,3.16,1.21,5.89,4.34,7.88,2.46,1.56,5.28.31,6.84-1.79,4.31-5.82,10.38-14,11.1-21.51A10.85,10.85,0,0,0,366,35.42Z" transform="translate(0)" fill="#231f20"/><path d="M242.87,166.12c-2.7-2.67-5.45-6.34-9.32-7.21s-7.8,1.87-8.86,5.7a8.3,8.3,0,0,0,3.9,9.51,10.07,10.07,0,0,0,8.92.21C241.89,176.08,246.91,170.12,242.87,166.12Z" transform="translate(0)" fill="#231f20"/><path d="M537.08,117.91c3.35-4.84,5.21-10.46,3-16.18-2-5.2-6.64-8.26-10.47-12-5-4.88-4.3-10.31-3-16.68,1.38-6.71,3.11-13.86.87-20.59-1.91-5.76-7.43-13.83-13.38-15.9-7.67-2.67-11.29,4.21-17,7.53-7,4.1-18.31,1.88-26,1.65a5.38,5.38,0,0,0-1.27.11q-.68-.65-1.37-1.28c-5.33-4.88-18.06-12.76-25-6.05-3.12,3-3.27,9.65-3.73,13.68a68,68,0,0,0,0,15.53,73.32,73.32,0,0,0,8.1,26.06c-10.68,7.37-21.05,15.65-26.17,28-2.68,6.45-3.76,13.73-2.1,20.59,1.58,6.52,6.06,10.11,12.37,11.7,7.25,1.82,15.06,1,22.12,3.63,8.45,3.1,8.13,9.43,9.36,17.09,1,6.07,4.29,11.44,11.19,10.62,7.12-.85,13.12-7.48,19.19-10.84,5.76-3.19,13.62-5.41,19.3-.84,4.52,3.64,9.6,8.91,15.52,4.18,4.88-3.9,5.17-13.12,5.37-18.8.27-7.56-1.57-14.63-2.91-22-.68-3.74-1.08-7.75.57-11.31C533.06,122.89,535.3,120.48,537.08,117.91Z" transform="translate(0)" fill="#231f20"/><path d="M508.69,25.09a6.55,6.55,0,0,0-3.58-5.41c-1.94-1-6.3,0-7.73-1.29-.77-.68-.71-4.25-1.34-5.45A13,13,0,0,0,490.94,8c-4.1-2.42-8.72-3.34-12.52.14a21.37,21.37,0,0,0-4.64,6.38c-4.5-4.53-9.15-8.68-16.19-5.38-5.28,2.47-6.42,8.62-3,13.17,1.66,2.24,4,3.34,6.25,4.88,1.38,1,6.13,4.88,5.82,6.5-.5,2.54.7,5.53,3.49,6.15,5.91,1.3,11.33.2,17.1-1.22a34.17,34.17,0,0,1,8.45-1.39c2.73,0,5.13.46,7.54-1.16C506.33,34,509,28.87,508.69,25.09Z" transform="translate(0)" fill="#231f20"/><path d="M547.81,30.54c-1.08-2.11-3.65-3.51-5.46-4.85l-8-6a4,4,0,0,0-6,.85,4,4,0,0,0-3.28,3.53c-1.69,9.65,5.54,17.6,11.09,24.73,2.5,3.21,7.27.93,8.36-2.21C546.07,42.16,550.21,35.23,547.81,30.54Z" transform="translate(0)" fill="#231f20"/><path d="M534.22,61.81c-6.43,0-6.45,10,0,10S540.66,61.81,534.22,61.81Z" transform="translate(0)" fill="#231f20"/><path d="M452.18,167.53c0-.13.11-.24.15-.38.65-2.38-.81-5.72-3.49-6.15-3.47-.56-7-1-10.4.26-3.91,1.47-6,4.74-7.11,8.64-.89,3.21-2.84,8.09-1,11.22,1.92,3.28,6.53,3.72,9.91,3.25,6.27-.87,13.1-6.34,13.1-13.16A6,6,0,0,0,452.18,167.53Z" transform="translate(0)" fill="#231f20"/><path d="M455.31,179.35c-6.43,0-6.45,10,0,10S461.75,179.35,455.31,179.35Z" transform="translate(0)" fill="#231f20"/></svg>